<svg viewBox="-2.4 -2.4 28.80 28.80" fill="none" xmlns="http://www.w3.org/2000/svg" stroke="#000000" stroke-width="0.00024000000000000003" transform="matrix(1, 0, 0, 1, 0, 0)rotate(0)"><g id="SVGRepo_bgCarrier" stroke-width="0"><path transform="translate(-2.4, -2.4), scale(0.8999999999999999)" d="M16,31.021939751174713C19.059479360913038,31.221413179309362,19.716189395761667,26.330987683943405,22.20499034120479,24.54043652233253C24.714327095224675,22.73511101086091,29.247311092546454,23.54835852232119,30.383829977021513,20.673589666799604C31.503830405751106,17.84060343606942,28.387710648385333,15.136584281054487,26.993563753034714,12.427974604846872C25.857255797028035,10.220305717833831,24.676126912722353,8.191898163686634,23.01125723665443,6.349832299696162C20.88417865632724,3.9963634972010307,19.171811498302333,0.2105752658831586,16.000000000000004,0.26433873342143244C12.818087627976379,0.318273414790261,11.241380230695611,4.177856341025468,9.15933178885838,6.584627950242787C7.580430152616782,8.40978031245191,6.494599677653281,10.410002114614235,5.374136109192605,12.547447532386652C3.9751470965137607,15.21622029647791,0.583346047477618,17.857907693881142,1.8061616386828092,20.61185764873815C3.069960584805292,23.458107791159115,7.845066334517371,21.926139638718876,10.356276980981999,23.76791832752336C12.888670066278204,25.62523269608925,12.866170973667884,30.817618837277852,16,31.021939751174713" fill="#f0e993" strokewidth="0"></path></g><g id="SVGRepo_tracerCarrier" stroke-linecap="round" stroke-linejoin="round"></g><g id="SVGRepo_iconCarrier"> <path fill-rule="evenodd" clip-rule="evenodd" d="M4 5C3.44772 5 3 5.44772 3 6C3 6.55228 3.44772 7 4 7H20C20.5523 7 21 6.55228 21 6C21 5.44772 20.5523 5 20 5H4ZM7 12C7 11.4477 7.44772 11 8 11H20C20.5523 11 21 11.4477 21 12C21 12.5523 20.5523 13 20 13H8C7.44772 13 7 12.5523 7 12ZM13 18C13 17.4477 13.4477 17 14 17H20C20.5523 17 21 17.4477 21 18C21 18.5523 20.5523 19 20 19H14C13.4477 19 13 18.5523 13 18Z" fill="#47484b"></path> </g></svg>